# Blender v2.79 (sub 0) OBJ File: 'test.blend'
# www.blender.org
mtllib ico.mtl
v -0.494525 -1.508016 -1.280666
v 0.476676 -1.320241 -0.924199
v -0.356966 -0.965837 -0.390341
v -1.081834 -0.657671 -1.086886
v -0.696176 -0.821629 -2.051231
v 0.267035 -1.231117 -1.950676
v 0.489606 -0.353826 -0.510101
v -0.473605 0.055661 -0.610656
v -0.683247 0.144786 -1.637133
v 0.150395 -0.209618 -2.170991
v 0.875263 -0.517784 -1.474446
v 0.287955 0.332561 -1.280666
v -0.482360 -1.350907 -0.757350
v 0.007639 -1.559219 -1.071141
v 0.088498 -1.240535 -0.547821
v 0.455274 -1.396459 -1.464961
v -0.115584 -1.506833 -1.674485
v -0.908426 -1.169772 -1.166765
v -0.827574 -0.851086 -0.643446
v -0.681741 -1.266145 -1.733589
v -1.026956 -0.766323 -1.619689
v -0.234109 -1.103386 -2.127414
v 0.812786 -0.977175 -1.185042
v 0.689562 -0.924789 -1.788389
v 0.096098 -0.672491 -0.304417
v 0.586104 -0.880806 -0.618210
v -0.896133 -0.250666 -0.772943
v -0.470065 -0.431799 -0.363519
v -0.792674 -0.294649 -1.943122
v -1.019357 -0.198280 -1.376290
v 0.263495 -0.743656 -2.197813
v -0.302669 -0.502964 -2.256915
v 0.820385 -0.409132 -0.941643
v 0.027538 -0.072070 -0.433918
v -0.661844 0.221004 -1.096371
v -0.295068 0.065079 -2.013511
v 0.621003 -0.324369 -1.917886
v 0.475171 0.090689 -0.827743
v 0.701856 -0.005684 -1.394567
v -0.090986 0.331378 -0.886847
v -0.214210 0.383764 -1.490191
v 0.275789 0.175452 -1.803982
vt 0.248707 0.844099
vt 0.193936 0.680686
vt 0.324993 0.713788
vt 0.127333 0.543157
vt 0.047750 0.680684
vt 0.331147 0.911137
vt 0.203892 1.000000
vt 0.119092 0.857572
vt 0.017115 0.536898
vt 0.443639 0.442899
vt 0.404492 0.536898
vt 0.335396 0.370986
vt 0.661592 0.268450
vt 0.558994 0.370988
vt 0.558994 0.165910
vt 0.751450 0.153584
vt 0.881332 0.146536
vt 0.801977 0.319609
vt 0.108244 0.442900
vt 0.000001 0.370991
vt 0.095488 0.268450
vt 0.797299 0.997247
vt 0.714222 0.863745
vt 0.860317 0.856507
vt 0.430883 0.268448
vt 0.670791 0.102540
vt 0.671855 0.280037
vt 0.223598 0.370988
vt 0.910844 0.690482
vt 0.780962 0.683434
vt 0.862040 0.536898
vt 0.662294 0.844097
vt 0.604589 1.000000
vt 0.543201 0.857572
vt 0.534961 0.543157
vt 0.614544 0.680684
vt 0.468358 0.680686
vt 0.108243 0.093999
vt 0.069096 0.000000
vt 0.207286 0.000000
vt 0.326196 0.268448
vt 0.223598 0.165910
vt 0.335396 0.102538
vt 0.331147 0.911137
vt 0.337301 0.713789
vt 0.413586 0.844099
vt 0.408642 0.536899
vt 0.458402 1.000000
vt 0.991503 0.619404
vt 0.715946 0.544137
vt 0.662294 0.702798
vt 0.000000 0.165912
vt 0.738596 0.460349
vt 0.864995 0.460349
vt 0.645178 0.536898
vt 0.542681 0.000000
vt 0.443639 0.093998
vt 0.335396 0.165907
vt 0.990438 0.816935
vt 0.670791 0.082506
vt 0.948072 0.326848
vt 1.000000 0.165900
vt 0.923698 0.997247
vt 0.335396 0.434358
vt 0.207286 0.536898
vt 0.057705 1.000000
vt 0.000000 0.844097
vt 0.800254 0.000000
vt 0.946348 0.007240
vt 0.670791 0.434359
vt 0.542682 0.536898
vt 0.253651 0.536899
vn -0.2143 -0.9341 0.2854
vn 0.4237 -0.8991 0.1100
vn -0.5711 -0.7824 0.2482
vn -0.6488 -0.7494 -0.1320
vn -0.3400 -0.8807 -0.3298
vn 0.7373 -0.6724 0.0656
vn 0.0811 -0.3935 0.9158
vn -0.8658 0.0091 0.5004
vn -0.7948 -0.0211 -0.6065
vn 0.1959 -0.4423 -0.8752
vn 0.7882 -0.4716 0.3954
vn -0.1365 -0.0785 0.9875
vn -0.9405 0.2633 0.2149
vn -0.5127 0.0815 -0.8547
vn 0.5557 -0.3727 -0.7432
vn 0.7516 0.3995 0.5249
vn -0.0483 0.7395 0.6714
vn -0.4237 0.8991 -0.1100
vn 0.1442 0.6577 -0.7393
vn 0.8706 0.3489 -0.3470
vn 0.5711 0.7824 -0.2482
vn 0.6810 0.5740 -0.4547
vn 0.5010 0.5060 -0.7021
vn 0.2143 0.9341 -0.2854
vn 0.0272 0.8519 -0.5230
vn -0.2808 0.8384 -0.4672
vn 0.0715 0.9949 0.0718
vn -0.2345 0.9632 0.1315
vn -0.3168 0.8537 0.4134
vn 0.3400 0.8807 0.3298
vn 0.2575 0.7540 0.6043
vn 0.4428 0.5308 0.7226
vn 0.6488 0.7494 0.1320
vn 0.8233 0.5135 0.2419
vn 0.9482 0.3159 0.0332
vn 0.8658 -0.0091 -0.5004
vn 0.6722 -0.0819 -0.7358
vn 0.4962 0.1481 -0.8555
vn -0.0811 0.3935 -0.9157
vn -0.3856 0.3678 -0.8462
vn -0.5061 0.5742 -0.6436
vn -0.7373 0.6724 -0.0656
vn -0.8091 0.5478 0.2128
vn -0.6304 0.6270 0.4577
vn -0.1959 0.4423 0.8752
vn -0.0130 0.2094 0.9777
vn 0.2951 0.2335 0.9265
vn 0.7948 0.0211 0.6065
vn 0.9025 -0.1798 0.3915
vn 0.9914 -0.0625 0.1149
vn 0.1365 0.0785 -0.9875
vn 0.0130 -0.2094 -0.9777
vn -0.2951 -0.2335 -0.9265
vn -0.7882 0.4716 -0.3954
vn -0.9025 0.1798 -0.3915
vn -0.9914 0.0625 -0.1149
vn -0.5557 0.3727 0.7432
vn -0.6722 0.0819 0.7358
vn -0.4962 -0.1481 0.8555
vn 0.5127 -0.0815 0.8547
vn 0.3856 -0.3678 0.8462
vn 0.5061 -0.5742 0.6436
vn 0.9405 -0.2633 -0.2149
vn 0.8091 -0.5478 -0.2128
vn 0.6304 -0.6270 -0.4577
vn 0.0483 -0.7395 -0.6714
vn -0.2575 -0.7540 -0.6043
vn -0.4428 -0.5308 -0.7226
vn -0.7516 -0.3995 -0.5249
vn -0.8233 -0.5135 -0.2419
vn -0.9482 -0.3159 -0.0332
vn -0.8706 -0.3489 0.3470
vn -0.6810 -0.5740 0.4547
vn -0.5010 -0.5060 0.7021
vn 0.3168 -0.8537 -0.4134
vn 0.2345 -0.9632 -0.1315
vn -0.0715 -0.9949 -0.0718
vn -0.1442 -0.6577 0.7393
vn -0.0272 -0.8519 0.5230
vn 0.2808 -0.8384 0.4672
usemtl Material.001
s off
f 1/1/1 14/2/1 13/3/1
f 2/4/2 14/2/2 16/5/2
f 1/1/3 13/3/3 18/6/3
f 1/1/4 18/6/4 20/7/4
f 1/1/5 20/7/5 17/8/5
f 2/4/6 16/5/6 23/9/6
f 3/10/7 15/11/7 25/12/7
f 4/13/8 19/14/8 27/15/8
f 5/16/9 21/17/9 29/18/9
f 6/19/10 22/20/10 31/21/10
f 2/22/11 23/23/11 26/24/11
f 3/10/12 25/12/12 28/25/12
f 4/13/13 27/15/13 30/26/13
f 5/16/14 29/18/14 32/27/14
f 6/19/15 31/21/15 24/28/15
f 7/29/16 33/30/16 38/31/16
f 8/32/17 34/33/17 40/34/17
f 9/35/18 35/36/18 41/37/18
f 10/38/19 36/39/19 42/40/19
f 11/41/20 37/42/20 39/43/20
f 39/44/21 42/45/21 12/46/21
f 39/43/22 37/42/22 42/40/22
f 37/42/23 10/38/23 42/40/23
f 42/45/24 41/37/24 12/46/24
f 42/45/25 36/47/25 41/37/25
f 36/47/26 9/35/26 41/37/26
f 41/37/27 40/34/27 12/46/27
f 41/37/28 35/36/28 40/34/28
f 35/36/29 8/32/29 40/34/29
f 40/34/30 38/48/30 12/46/30
f 40/34/31 34/33/31 38/48/31
f 34/49/32 7/29/32 38/31/32
f 38/48/33 39/44/33 12/46/33
f 38/31/34 33/30/34 39/50/34
f 33/30/35 11/51/35 39/50/35
f 24/28/36 37/42/36 11/41/36
f 24/28/37 31/21/37 37/42/37
f 31/21/38 10/38/38 37/42/38
f 32/52/39 36/39/39 10/38/39
f 32/27/40 29/18/40 36/53/40
f 29/18/41 9/54/41 36/53/41
f 30/55/42 35/36/42 9/35/42
f 30/26/43 27/15/43 35/56/43
f 27/15/44 8/57/44 35/56/44
f 28/25/45 34/58/45 8/57/45
f 28/25/46 25/12/46 34/58/46
f 25/59/47 7/29/47 34/49/47
f 26/24/48 33/30/48 7/29/48
f 26/24/49 23/23/49 33/30/49
f 23/23/50 11/51/50 33/30/50
f 31/21/51 32/52/51 10/38/51
f 31/21/52 22/20/52 32/52/52
f 22/60/53 5/16/53 32/27/53
f 29/18/54 30/61/54 9/54/54
f 29/18/55 21/17/55 30/61/55
f 21/17/56 4/62/56 30/61/56
f 27/15/57 28/25/57 8/57/57
f 27/15/58 19/14/58 28/25/58
f 19/14/59 3/10/59 28/25/59
f 25/59/60 26/24/60 7/29/60
f 25/59/61 15/63/61 26/24/61
f 15/63/62 2/22/62 26/24/62
f 23/64/63 24/28/63 11/41/63
f 23/64/64 16/65/64 24/28/64
f 16/65/65 6/19/65 24/28/65
f 17/8/66 22/66/66 6/67/66
f 17/8/67 20/7/67 22/66/67
f 20/68/68 5/16/68 22/60/68
f 20/68/69 21/17/69 5/16/69
f 20/68/70 18/69/70 21/17/70
f 18/69/71 4/62/71 21/17/71
f 18/70/72 19/14/72 4/13/72
f 18/70/73 13/71/73 19/14/73
f 13/71/74 3/10/74 19/14/74
f 16/5/75 17/8/75 6/67/75
f 16/5/76 14/2/76 17/8/76
f 14/2/77 1/1/77 17/8/77
f 13/71/78 15/11/78 3/10/78
f 13/3/79 14/2/79 15/72/79
f 14/2/80 2/4/80 15/72/80
